<svg width="24" height="24" viewBox="0 0 512 384" fill="none" xmlns="http://www.w3.org/2000/svg">
<g clip-path="url(#clip0_3266_6105)">
<path d="M470.6 214.601C483.1 202.101 483.1 181.801 470.6 169.301L310.6 9.30078C298.1 -3.19922 277.8 -3.19922 265.3 9.30078C252.8 21.8008 252.8 42.1008 265.3 54.6008L370.8 160.001L63.9996 160.001C46.2996 160.001 31.9996 174.301 31.9996 192.001C31.9996 209.701 46.2996 224.001 63.9996 224.001L370.8 224.001L265.4 329.401C252.9 341.901 252.9 362.201 265.4 374.701C277.9 387.201 298.2 387.201 310.7 374.701L470.7 214.701L470.6 214.601Z" fill="#EDEDED"/>
</g>
<defs>
<clipPath id="clip0_3266_6105">
<rect width="384" height="512" fill="white" transform="matrix(0 1 -1 0 512 0)"/>
</clipPath>
</defs>
</svg>
