<svg width="32" height="32" viewBox="0 0 32 32" fill="none" xmlns="http://www.w3.org/2000/svg">
<path d="M28 27L20.5 19.5M5 13C5 14.1819 5.23279 15.3522 5.68508 16.4442C6.13738 17.5361 6.80031 18.5282 7.63604 19.364C8.47177 20.1997 9.46392 20.8626 10.5558 21.3149C11.6478 21.7672 12.8181 22 14 22C15.1819 22 16.3522 21.7672 17.4442 21.3149C18.5361 20.8626 19.5282 20.1997 20.364 19.364C21.1997 18.5282 21.8626 17.5361 22.3149 16.4442C22.7672 15.3522 23 14.1819 23 13C23 10.6131 22.0518 8.32387 20.364 6.63604C18.6761 4.94821 16.3869 4 14 4C11.6131 4 9.32387 4.94821 7.63604 6.63604C5.94821 8.32387 5 10.6131 5 13Z" stroke="#F5F5F5" stroke-width="2" stroke-linecap="round" stroke-linejoin="round"/>
</svg>
