<svg width="712" height="593" viewBox="0 0 712 593" fill="none" xmlns="http://www.w3.org/2000/svg">
<path d="M177.671 456.364H688.688C691.614 456.364 694.512 455.787 697.216 454.667C699.92 453.547 702.377 451.904 704.446 449.834C706.515 447.764 708.157 445.306 709.277 442.601C710.396 439.896 710.973 436.996 710.973 434.068V138.421C710.977 136.445 710.714 134.477 710.192 132.572C708.91 127.849 706.109 123.679 702.223 120.706C698.336 117.734 693.58 116.124 688.688 116.125H489.092C484.435 123.972 481.566 132.75 480.687 141.833C478.211 168.24 493.345 192.653 506.886 215.463C520.428 238.272 533.342 264.792 526.171 290.336C521.322 307.563 508.181 320.032 491.876 327.505C476.209 334.441 458.975 337.067 441.954 335.111C431.731 333.82 421.662 331.52 411.892 328.245C399.08 324.082 386.566 318.685 374.072 313.227C374.062 313.227 374.062 313.227 374.052 313.217C373.836 313.124 373.61 313.022 373.394 312.929C363.726 308.704 354.068 304.469 344.267 300.738C332.782 296.245 320.862 292.958 308.698 290.932C290.215 288.033 271.577 289.082 255.087 297.469C228.21 311.13 213.805 340.652 202.535 368.632C191.151 396.92 180.949 426.153 177.671 456.364Z" fill="#00EE87"/>
<path d="M1.02742 343.263V434.068C1.02726 436.996 1.60355 439.895 2.7234 442.601C3.84325 445.306 5.48474 447.764 7.55409 449.834C9.62345 451.904 12.0801 453.546 14.7839 454.667C17.4877 455.787 20.3856 456.364 23.3121 456.364H108.259C109.728 442.662 108.495 429.011 103.101 416.275C91.3476 388.501 62.9087 372.075 35.7953 358.887C24.4012 353.346 12.8119 348.001 1.02742 343.263Z" fill="#00EE87"/>
<path d="M90.05 435.394C90.05 441.307 92.3979 446.979 96.577 451.16C100.756 455.341 106.424 457.69 112.335 457.69H197.282C198.751 443.988 197.518 430.337 192.124 417.601C189.361 411.071 182.906 403.838 174.495 396.531C141.496 367.865 90.05 391.671 90.05 435.394Z" fill="#00EE87"/>
<path d="M0 434.068V138.421C0.00700493 132.237 2.46534 126.309 6.83567 121.936C11.206 117.564 17.1314 115.104 23.312 115.097H688.688C694.869 115.104 700.794 117.564 705.164 121.936C709.535 126.309 711.993 132.237 712 138.421V434.068C711.993 440.252 709.535 446.18 705.164 450.552C700.794 454.925 694.869 457.385 688.688 457.392H23.312C17.1314 457.385 11.2059 454.925 6.83552 450.552C2.46517 446.18 0.00689884 440.252 0 434.068ZM23.312 117.153C17.6762 117.159 12.273 119.402 8.28788 123.389C4.30274 127.376 2.06113 132.782 2.05483 138.421V434.068C2.06103 439.706 4.30258 445.112 8.28772 449.1C12.2729 453.087 17.6761 455.329 23.312 455.336H688.688C694.324 455.329 699.727 453.087 703.712 449.1C707.697 445.112 709.939 439.706 709.945 434.068V138.421C709.939 132.782 707.697 127.376 703.712 123.389C699.727 119.402 694.324 117.159 688.688 117.153H23.312Z" fill="#001D38"/>
<path d="M220.186 455.634H250.402C255.57 438.225 263.029 419.771 269.841 402.955C282.91 370.711 299.605 336.69 330.767 320.946C344.072 314.223 358.579 311.598 373.394 311.741C393.86 311.935 414.902 317.431 434.166 324.716C442.046 327.689 449.855 330.958 457.632 334.299C486.934 346.896 515.917 360.617 547.428 364.326C587.302 369.015 634.183 351.167 645.074 312.722C653.386 283.287 638.416 252.73 622.717 226.442C607.019 200.155 589.47 172.028 592.337 141.593C592.347 141.491 592.357 141.379 592.378 141.276C593.457 130.345 599.981 122.488 609.094 117.452H569.415C568.891 145.843 585.309 170.905 600.083 195.649C615.782 221.926 630.752 252.495 622.44 281.929C611.549 320.364 521.37 275.31 481.496 270.61C470.235 269.292 488.123 273.982 477.386 270.61C460.547 265.328 458.68 313.774 442.293 306.663C432.09 302.229 421.878 297.826 411.532 293.913C407.248 292.288 402.871 290.766 398.443 289.356C398.432 289.356 398.432 289.356 398.422 289.346C368.689 279.926 336.171 276.258 308.698 289.877C308.513 289.969 308.318 290.061 308.133 290.153C276.971 305.887 260.276 339.908 247.207 372.152C236.409 398.807 225.508 427.518 220.186 455.634Z" fill="#001D38"/>
<path d="M220.514 243.728H23.9779C22.3675 243.728 20.823 244.368 19.6843 245.507C18.5456 246.647 17.9058 248.192 17.9058 249.803C17.9058 251.414 18.5456 252.959 19.6843 254.099C20.823 255.238 22.3675 255.878 23.9779 255.878H220.514C222.125 255.878 223.669 255.238 224.808 254.099C225.946 252.959 226.586 251.414 226.586 249.803C226.586 248.192 225.946 246.647 224.808 245.507C223.669 244.368 222.125 243.728 220.514 243.728Z" fill="#001D38"/>
<path d="M85.051 209.665H24.1145C22.5041 209.665 20.9597 210.305 19.8209 211.444C18.6822 212.584 18.0424 214.129 18.0424 215.74C18.0424 217.351 18.6822 218.896 19.8209 220.036C20.9597 221.175 22.5041 221.815 24.1145 221.815H85.0511C86.6615 221.815 88.2059 221.175 89.3447 220.036C90.4834 218.896 91.1231 217.351 91.1231 215.74C91.1231 214.129 90.4834 212.584 89.3447 211.444C88.2059 210.305 86.6614 209.665 85.051 209.665Z" fill="#001D38"/>
<path d="M320.038 565.274L307.582 565.169L302.069 515.982L320.451 516.138L320.038 565.274Z" fill="#FFB6B6"/>
<path d="M280.141 585.09C280.13 586.567 280.705 587.989 281.74 589.042C282.775 590.096 284.186 590.696 285.662 590.71L310.427 590.917L314.762 582.125L316.354 590.962L325.698 591.047L323.339 559.529L320.088 559.313L306.828 558.398L302.55 558.111L302.475 567.029L282.581 580.529C281.836 581.035 281.225 581.714 280.8 582.509C280.375 583.303 280.149 584.189 280.141 585.09Z" fill="#001D38"/>
<path d="M446.411 565.274L433.954 565.169L428.441 515.982L446.824 516.138L446.411 565.274Z" fill="#FFB6B6"/>
<path d="M406.513 585.09C406.502 586.567 407.077 587.989 408.112 589.042C409.147 590.096 410.558 590.696 412.034 590.71L436.799 590.917L441.134 582.125L442.726 590.962L452.071 591.047L449.711 559.529L446.46 559.313L433.2 558.398L428.922 558.111L428.847 567.029L408.954 580.529C408.208 581.035 407.597 581.714 407.172 582.509C406.747 583.303 406.521 584.189 406.513 585.09Z" fill="#001D38"/>
<path d="M304.672 171.374L360.731 128.211C363.101 126.375 364.654 123.681 365.055 120.709C365.457 117.738 364.675 114.728 362.878 112.328C361.948 111.087 360.775 110.048 359.431 109.275C358.087 108.502 356.6 108.011 355.06 107.832C353.52 107.653 351.959 107.789 350.474 108.233C348.988 108.677 347.609 109.419 346.419 110.413L289.562 157.035L253.82 183.908C252.051 182.879 250.008 182.42 247.97 182.593C245.931 182.766 243.995 183.562 242.425 184.874C240.855 186.186 239.726 187.95 239.193 189.926C238.659 191.903 238.747 193.995 239.443 195.92C240.14 197.844 241.412 199.508 243.086 200.684C244.761 201.86 246.757 202.492 248.803 202.494C250.849 202.496 252.845 201.867 254.522 200.694C256.199 199.521 257.474 197.86 258.174 195.937L304.672 171.374Z" fill="#FFB6B6"/>
<path d="M350.363 181.296L347.892 236.51L431.817 246.67C425.213 224.484 414.384 193.669 419.346 178.229L350.363 181.296Z" fill="#A0616A"/>
<path d="M398.069 80.0748H372.217L361.114 99.0819L355.824 98.7897C345.514 102.762 341.404 106.874 335.715 117.829L315.719 134.628L331.13 153.13C341.775 151.385 345.613 143.118 342.233 127.936C342.233 127.936 330.576 148.261 347.368 158.26C347.368 158.26 344.373 177.1 347.368 176.898C350.363 176.695 357.261 172.861 350.363 176.695C343.464 180.529 344.646 180.695 344.871 181.937C348.596 202.47 351.679 217.888 351.679 217.888L424.625 225.084C424.625 225.084 420.422 180.947 420.651 178.438C420.879 175.928 419.346 182.063 420.879 175.928C422.412 169.793 424.712 172.094 422.412 169.794C420.113 167.493 438.219 165.512 431.152 154.456L454.783 148.289L441.574 116.881C441.574 106.276 424.55 97.679 413.951 97.679H412.593L398.069 80.0748Z" fill="#E6E6E6"/>
<path d="M425.579 216.744C397.041 226.565 371.348 224.409 349.624 205.553C349.624 205.553 343.51 228.167 337.32 225.084C331.13 222 334.19 230.629 332.489 233.793C330.684 237.151 332.78 242.817 326.818 244.744C320.856 246.67 323.096 252.331 321.166 256.497C307.659 285.654 292.235 326.924 281.814 379.27C271.107 433.06 297.226 523.178 297.226 523.178L321.884 521.122L328.048 403.94L356.243 354.409C356.243 354.409 370.095 346.34 361.4 342.247C352.706 338.154 358.531 333.082 364.865 334.076C371.2 335.07 378.392 302.177 378.392 302.177C369.36 324.885 425.653 525.234 425.653 525.234L449.283 523.178L435.927 243.586L425.579 216.744Z" fill="#001D38"/>
<path d="M413.411 32.3569C416.214 39.3398 424.12 53.072 425.191 60.5631L424.709 60.0889C423.789 61.6604 422.744 63.1549 421.585 64.5581C419.505 62.3735 416.994 60.6461 414.211 59.4859C415.731 62.6056 416.611 65.9982 416.8 69.4636C411.653 73.9477 398.508 71.2423 391.941 73.6321C381.372 77.4684 370.152 78.8341 359.073 79.9682C355.141 80.3732 350.739 80.6191 347.983 78.2943C345.227 75.9695 346.868 71.6644 345.386 68.4081C334.825 45.2138 344.571 36.8454 352.852 26.3283C354.674 24.0138 354.666 20.56 356.883 18.3517C359.96 15.2908 364.676 14.3493 369.024 13.5951C367.894 13.6547 366.768 13.4223 365.755 12.9204C364.741 12.4186 363.874 11.6641 363.236 10.7296C362.676 9.7881 362.388 8.71029 362.401 7.61504C362.415 6.5198 362.731 5.44968 363.315 4.5227C364.869 1.94351 368.101 0.443674 371.218 0.0689899C374.289 -0.139663 377.374 0.125656 380.365 0.855639C382.302 1.11055 384.178 1.71043 385.904 2.62689C386.718 3.06155 387.38 3.73456 387.802 4.55592C388.224 5.37728 388.385 6.30786 388.264 7.22325C388.004 8.06858 387.557 8.84433 386.956 9.49264C386.354 10.141 385.615 10.6451 384.792 10.9675C383.536 11.4984 382.216 11.8599 380.866 12.0426C387.068 11.2373 393.369 12.3406 398.929 15.2057C405.897 18.9245 410.599 25.3778 413.411 32.3569Z" fill="#001D38"/>
<path d="M375.68 71.5057C389.437 71.5057 400.589 60.3483 400.589 46.585C400.589 32.8216 389.437 21.6642 375.68 21.6642C361.923 21.6642 350.771 32.8216 350.771 46.585C350.771 60.3483 361.923 71.5057 375.68 71.5057Z" fill="#FFB6B6"/>
<path d="M399.648 33.2229C398.204 37.5898 394.077 38.997 390.262 39.8747C389.059 40.1551 387.849 40.4165 386.628 40.6491C386.177 40.0854 385.698 39.533 385.197 39.0109C383.118 36.8263 380.607 35.0989 377.824 33.9387C379.028 36.403 379.828 39.0448 380.193 41.763C377.887 42.0978 375.568 42.3713 373.236 42.5837C371.264 43.0038 369.205 42.6496 367.486 41.5943C365.767 40.539 364.519 38.8632 363.999 36.9133C361.877 40.3861 359.367 43.6567 355.935 45.0362C353.972 45.7418 351.835 45.7998 349.837 45.2017C347.839 44.6037 346.085 43.381 344.832 41.713C342.776 39.204 341.631 35.8334 340.808 32.5804C339.834 28.7132 339.293 24.2585 341.205 21.8048C342.737 19.8191 345.38 19.7834 347.819 19.9596C353.201 20.3727 358.526 21.3386 363.711 22.8422L364.15 23.8295C363.259 18.4742 365.191 13.3216 368.767 11.4891C371.179 10.264 374.081 10.4694 376.901 10.7179C380.522 10.8796 384.101 11.572 387.522 12.7729C391.446 14.2832 394.808 16.9697 397.148 20.4648C399.651 24.2665 400.894 29.4515 399.648 33.2229Z" fill="#001D38"/>
<path d="M364.139 9.93064C364.385 9.85805 363.748 9.95129 363.969 9.95721C363.859 9.95084 363.75 9.93558 363.643 9.91155C363.624 9.9079 363.376 9.82872 363.541 9.88688C363.171 9.7762 362.841 9.56074 362.591 9.2665C362.006 8.5426 361.547 7.72525 361.233 6.84876C360.837 5.69049 360.201 4.62907 359.366 3.73417C359.129 3.49606 358.839 3.31722 358.52 3.21214C358.201 3.10706 357.862 3.07872 357.53 3.12942C357.198 3.18012 356.883 3.30844 356.61 3.50394C356.337 3.69944 356.113 3.95662 355.958 4.25461C355.473 5.32822 355.916 6.65104 356.262 7.7055C356.619 8.80111 357.151 9.83191 357.836 10.7582C358.984 12.2729 360.548 13.4207 362.337 14.0618C364.407 14.8141 366.665 14.8787 368.775 14.2459C369.054 14.1302 369.293 13.9358 369.463 13.6866C369.634 13.4373 369.728 13.1439 369.734 12.842C369.741 12.5401 369.66 12.2428 369.5 11.9863C369.341 11.7299 369.111 11.5253 368.837 11.3975L365.318 9.95635C365.133 9.8748 364.933 9.83055 364.731 9.82613C364.529 9.82172 364.327 9.85725 364.139 9.93064C363.95 10.004 363.778 10.1138 363.632 10.2539C363.485 10.3939 363.368 10.5613 363.287 10.7467C363.205 10.932 363.161 11.1316 363.156 11.334C363.152 11.5365 363.188 11.7378 363.261 11.9265C363.334 12.1152 363.444 12.2876 363.584 12.4339C363.724 12.5802 363.891 12.6974 364.077 12.779L367.596 14.2201L367.658 11.3718C367.219 11.4986 366.767 11.5759 366.311 11.6022C365.824 11.651 365.333 11.6303 364.852 11.5407C364.391 11.4802 363.938 11.3698 363.502 11.2113C363.222 11.1091 362.947 10.9927 362.679 10.8627C362.582 10.8154 362.486 10.7663 362.39 10.7154C362.397 10.7191 361.988 10.4805 362.167 10.5926C361.712 10.3016 361.285 9.96882 360.892 9.59852C360.753 9.4672 360.625 9.32475 360.509 9.17258C360.309 8.92615 360.123 8.66824 359.952 8.40013C359.606 7.83238 359.331 7.22362 359.135 6.58792C359.045 6.32075 358.97 6.0491 358.909 5.77408C358.892 5.62311 358.864 5.47348 358.827 5.32623C358.696 4.97538 358.852 5.5311 358.702 5.68312L358.053 6.16136C357.931 6.19767 357.803 6.20609 357.677 6.18599C357.552 6.16588 357.432 6.11777 357.328 6.04522C357.251 5.93702 357.268 5.95496 357.378 6.09906C357.507 6.26864 357.624 6.44621 357.73 6.63069C357.963 7.065 358.173 7.51085 358.36 7.96649C358.748 8.93556 359.237 9.86049 359.821 10.7255C360.392 11.6005 361.226 12.2726 362.202 12.6459C363.178 13.0193 364.246 13.0748 365.256 12.8047C365.635 12.6539 365.939 12.36 366.103 11.9866C366.267 11.6133 366.278 11.1903 366.134 10.8089C365.979 10.433 365.685 10.1317 365.313 9.96797C364.941 9.80425 364.52 9.79088 364.139 9.93064Z" fill="#001D38"/>
<path d="M325.29 280.688C365.966 280.688 398.94 247.698 398.94 207.002C398.94 166.307 365.966 133.316 325.29 133.316C284.614 133.316 251.639 166.307 251.639 207.002C251.639 247.698 284.614 280.688 325.29 280.688Z" fill="white"/>
<path d="M325.289 281.716C310.52 281.716 296.081 277.334 283.801 269.125C271.52 260.915 261.948 249.246 256.296 235.594C250.644 221.942 249.165 206.92 252.046 192.427C254.928 177.934 262.04 164.621 272.484 154.172C282.928 143.723 296.234 136.607 310.72 133.724C325.206 130.841 340.221 132.321 353.867 137.976C367.513 143.631 379.176 153.207 387.382 165.493C395.587 177.78 399.967 192.225 399.967 207.002C399.945 226.81 392.07 245.801 378.07 259.808C364.07 273.815 345.088 281.694 325.289 281.716ZM325.289 134.345C310.926 134.345 296.885 138.606 284.942 146.59C272.999 154.573 263.691 165.921 258.195 179.198C252.698 192.474 251.26 207.083 254.062 221.178C256.864 235.272 263.781 248.218 273.937 258.38C284.094 268.541 297.034 275.461 311.122 278.264C325.209 281.068 339.811 279.629 353.081 274.129C366.352 268.63 377.694 259.317 385.674 247.369C393.653 235.42 397.913 221.372 397.913 207.002C397.891 187.739 390.232 169.271 376.618 155.649C363.003 142.028 344.544 134.366 325.289 134.345Z" fill="#001D38"/>
<path d="M315.242 245.352C313.97 245.352 312.716 245.056 311.578 244.487C310.441 243.918 309.451 243.091 308.689 242.073L288.596 215.269C287.95 214.408 287.481 213.428 287.214 212.385C286.947 211.343 286.888 210.258 287.04 209.192C287.192 208.127 287.552 207.101 288.101 206.175C288.649 205.249 289.374 204.44 290.235 203.794C291.095 203.148 292.075 202.679 293.117 202.411C294.159 202.144 295.244 202.085 296.309 202.238C297.374 202.39 298.398 202.75 299.324 203.299C300.25 203.847 301.058 204.573 301.704 205.434L314.849 222.968L348.612 172.301C349.209 171.405 349.976 170.636 350.87 170.037C351.764 169.438 352.767 169.021 353.822 168.81C354.877 168.599 355.963 168.598 357.019 168.807C358.074 169.016 359.078 169.43 359.973 170.027C360.868 170.625 361.637 171.392 362.236 172.287C362.835 173.181 363.251 174.185 363.462 175.24C363.673 176.296 363.674 177.382 363.466 178.438C363.257 179.494 362.842 180.499 362.245 181.394L322.059 241.702C321.333 242.793 320.355 243.693 319.208 244.328C318.062 244.963 316.78 245.313 315.47 245.35C315.394 245.351 315.318 245.352 315.242 245.352Z" fill="#00EE87"/>
<path d="M244.163 591.777C244.163 591.938 244.194 592.097 244.256 592.246C244.317 592.394 244.407 592.529 244.52 592.643C244.634 592.757 244.769 592.847 244.918 592.908C245.066 592.969 245.225 593.001 245.386 593H505.621C505.945 593 506.256 592.871 506.485 592.642C506.714 592.412 506.843 592.101 506.843 591.777C506.843 591.453 506.714 591.141 506.485 590.912C506.256 590.683 505.945 590.554 505.621 590.554H245.386C245.225 590.553 245.066 590.585 244.918 590.646C244.769 590.707 244.634 590.797 244.521 590.911C244.407 591.025 244.317 591.16 244.256 591.308C244.194 591.457 244.163 591.616 244.163 591.777Z" fill="#CCCCCC"/>
<path d="M474.575 209.523L450.5 142.976C449.471 140.16 447.377 137.861 444.67 136.575C441.962 135.29 438.858 135.121 436.027 136.106C434.563 136.615 433.217 137.417 432.073 138.463C430.928 139.51 430.009 140.778 429.37 142.192C428.732 143.605 428.388 145.134 428.359 146.685C428.331 148.236 428.618 149.776 429.204 151.212L456.331 219.571L471.064 261.803C469.547 263.177 468.489 264.984 468.035 266.98C467.58 268.976 467.751 271.063 468.523 272.958C469.296 274.854 470.633 276.465 472.353 277.574C474.073 278.683 476.092 279.235 478.136 279.155C480.181 279.076 482.151 278.369 483.78 277.13C485.408 275.891 486.616 274.181 487.24 272.231C487.863 270.281 487.871 268.187 487.263 266.233C486.655 264.278 485.461 262.558 483.842 261.307L474.575 209.523Z" fill="#FFB6B6"/>
<path d="M438.344 113.34L457.865 148.289C457.865 148.289 412.877 163.699 412.768 161.134C412.659 158.568 415.004 122.963 415.004 122.963L438.344 113.34Z" fill="#E6E6E6"/>
</svg>
