<svg width="655" height="640" viewBox="0 0 655 640" fill="none" xmlns="http://www.w3.org/2000/svg">
<path d="M417.778 143.465H382.927V441.4C382.927 446.075 382.008 450.703 380.224 455.022C378.44 459.341 375.825 463.265 372.529 466.57C369.232 469.876 365.319 472.498 361.012 474.286C356.705 476.075 352.089 476.996 347.427 476.996H80.9707V477.337C80.9707 482.011 81.8889 486.64 83.6729 490.959C85.4569 495.277 88.0718 499.201 91.3683 502.507C94.6648 505.812 98.5782 508.434 102.885 510.223C107.192 512.012 111.809 512.933 116.47 512.932H417.778C422.44 512.933 427.056 512.012 431.363 510.223C435.67 508.434 439.584 505.812 442.88 502.507C446.177 499.201 448.792 495.277 450.576 490.959C452.36 486.64 453.278 482.011 453.278 477.337V179.061C453.278 169.62 449.538 160.566 442.88 153.891C436.223 147.215 427.193 143.465 417.778 143.465Z" fill="#F2F2F2"/>
<path d="M582.992 616.93C583.609 616.959 584.219 616.796 584.741 616.465C585.263 616.134 585.671 615.649 585.909 615.078C586.147 614.507 586.205 613.876 586.073 613.271C585.942 612.665 585.628 612.115 585.175 611.695L584.968 610.872C584.996 610.806 585.023 610.74 585.05 610.675C585.672 609.202 586.714 607.947 588.044 607.067C589.375 606.186 590.935 605.72 592.53 605.726C594.124 605.732 595.681 606.21 597.005 607.1C598.329 607.991 599.361 609.253 599.972 610.73C602.413 616.624 605.52 622.528 606.285 628.76C606.622 631.514 606.48 634.306 605.865 637.012C611.597 624.475 614.573 610.848 614.593 597.055C614.594 593.594 614.402 590.136 614.018 586.696C613.701 583.877 613.261 581.077 612.698 578.297C609.626 563.216 603.029 549.08 593.451 537.051C588.814 534.514 585.065 530.614 582.708 525.875C581.854 524.172 581.251 522.353 580.916 520.476C581.439 520.545 582.888 512.559 582.494 512.069C583.222 510.96 584.527 510.409 585.323 509.327C589.282 503.945 594.736 504.885 597.583 512.198C603.665 515.276 603.724 520.381 599.992 525.29C597.618 528.414 597.291 532.641 595.208 535.985C595.422 536.26 595.645 536.526 595.86 536.801C599.778 541.853 603.193 547.278 606.055 552.998C605.359 546.59 606.19 540.108 608.48 534.085C610.8 528.472 615.15 523.744 618.98 518.892C619.993 517.588 621.369 516.615 622.933 516.095C624.498 515.576 626.181 515.533 627.77 515.972C629.359 516.411 630.782 517.313 631.86 518.563C632.938 519.813 633.622 521.356 633.825 522.996C633.833 523.067 633.841 523.139 633.848 523.21C633.279 523.532 632.723 523.874 632.178 524.235C631.493 524.693 630.963 525.349 630.656 526.115C630.349 526.881 630.28 527.722 630.458 528.528C630.636 529.334 631.053 530.067 631.654 530.631C632.255 531.196 633.011 531.565 633.825 531.691L633.908 531.704C633.706 533.76 633.347 535.797 632.837 537.799C637.75 556.853 627.142 563.793 611.995 564.104C611.66 564.276 611.335 564.448 611 564.612C613.876 572.784 615.681 581.298 616.367 589.937C616.756 595.034 616.733 600.154 616.299 605.248L616.324 605.067C617.422 599.404 620.435 594.293 624.855 590.599C631.42 585.192 640.694 583.201 647.776 578.854C648.529 578.37 649.404 578.111 650.299 578.109C651.193 578.107 652.07 578.361 652.825 578.842C653.58 579.323 654.182 580.01 654.56 580.823C654.938 581.636 655.077 582.54 654.959 583.429L654.93 583.619C653.875 584.05 652.847 584.547 651.852 585.106C651.284 585.428 650.727 585.769 650.182 586.131C649.497 586.589 648.967 587.244 648.66 588.01C648.353 588.776 648.284 589.618 648.462 590.423C648.641 591.229 649.057 591.963 649.658 592.527C650.259 593.091 651.016 593.461 651.829 593.586L651.913 593.599C651.973 593.608 652.024 593.617 652.084 593.625C650.28 597.944 647.748 601.919 644.599 605.377C641.527 622.01 628.331 623.588 614.215 618.744H614.207C612.658 625.493 610.414 632.062 607.511 638.345H583.591C583.505 638.078 583.428 637.803 583.351 637.537C585.565 637.676 587.788 637.543 589.97 637.141C588.195 634.958 586.42 632.757 584.646 630.574C584.606 630.533 584.569 630.49 584.534 630.445C583.634 629.327 582.725 628.218 581.825 627.1L581.824 627.099C581.776 623.674 582.169 620.255 582.992 616.93Z" fill="#F2F2F2"/>
<path d="M319.535 102.937C320.408 104.264 321.558 105.385 322.906 106.222C324.254 107.059 325.767 107.592 327.34 107.786C328.914 107.979 330.511 107.827 332.02 107.34C333.529 106.854 334.915 106.044 336.082 104.968L385.812 127.465L395.4 115.203L336.14 88.9154C334.187 87.0811 331.63 86.0288 328.955 85.958C326.28 85.8872 323.673 86.8027 321.626 88.5311C319.579 90.2595 318.236 92.6807 317.85 95.3359C317.465 97.991 318.064 100.696 319.535 102.937Z" fill="#A0616A"/>
<path d="M532.957 116.966L537.889 144.991C538.119 146.299 538.074 147.64 537.757 148.929C537.439 150.218 536.857 151.426 536.046 152.476C535.235 153.526 534.215 154.394 533.05 155.025C531.885 155.656 530.601 156.035 529.281 156.14L445.472 162.748L346.957 118.539L358.723 96.1421L444.243 123.297L532.957 116.966Z" fill="#00EE87"/>
<path d="M336.808 96.8805H35.4998C15.8938 96.8805 0 112.817 0 132.476V430.752C0 450.411 15.8938 466.348 35.4998 466.348H336.808C356.414 466.348 372.307 450.411 372.307 430.752V132.476C372.307 112.817 356.414 96.8805 336.808 96.8805Z" fill="#F2F2F2"/>
<path d="M35.5 104.201C31.7968 104.201 28.1299 104.932 24.7086 106.353C21.2873 107.774 18.1787 109.857 15.5601 112.482C12.9416 115.108 10.8645 118.225 9.44731 121.656C8.03017 125.086 7.30079 128.763 7.30079 132.476V430.753C7.30079 438.252 10.2718 445.444 15.5601 450.746C20.8485 456.049 28.0211 459.028 35.5 459.028H227.802C245.82 459.028 263.661 455.47 280.308 448.556C296.954 441.642 312.08 431.508 324.82 418.733C337.561 405.958 347.667 390.792 354.562 374.1C361.458 357.409 365.006 339.519 365.006 321.452V132.476C365.006 128.763 364.277 125.086 362.86 121.656C361.443 118.225 359.366 115.108 356.747 112.482C354.129 109.857 351.02 107.774 347.599 106.353C344.177 104.932 340.51 104.201 336.807 104.201H35.5Z" fill="white"/>
<path d="M270.383 194.723H101.265C99.7136 194.723 98.2253 194.104 97.128 193.004C96.0307 191.904 95.4143 190.412 95.4143 188.856C95.4143 187.3 96.0307 185.807 97.128 184.707C98.2253 183.607 99.7136 182.989 101.265 182.989H270.383C271.935 182.989 273.423 183.607 274.52 184.707C275.618 185.807 276.234 187.3 276.234 188.856C276.234 190.412 275.618 191.904 274.52 193.004C273.423 194.104 271.935 194.723 270.383 194.723Z" fill="#F2F2F2"/>
<path d="M270.383 319.835H101.265C99.7136 319.835 98.2253 319.217 97.128 318.116C96.0307 317.016 95.4143 315.524 95.4143 313.968C95.4143 312.412 96.0307 310.919 97.128 309.819C98.2253 308.719 99.7136 308.101 101.265 308.101H270.383C271.935 308.101 273.423 308.719 274.52 309.819C275.618 310.919 276.234 312.412 276.234 313.968C276.234 315.524 275.618 317.016 274.52 318.116C273.423 319.217 271.935 319.835 270.383 319.835Z" fill="#F2F2F2"/>
<path d="M339.058 257.32H32.5903C31.0385 257.32 29.5502 256.702 28.4529 255.601C27.3556 254.501 26.7392 253.009 26.7392 251.453C26.7392 249.897 27.3556 248.404 28.4529 247.304C29.5502 246.204 31.0385 245.586 32.5903 245.586H339.058C340.61 245.586 342.098 246.204 343.196 247.304C344.293 248.404 344.909 249.897 344.909 251.453C344.909 253.009 344.293 254.501 343.196 255.601C342.098 256.702 340.61 257.32 339.058 257.32Z" fill="#F2F2F2"/>
<path d="M522.368 240.491L491.838 305.709L609.282 293.782L584.766 231.174L522.368 240.491Z" fill="#A0616A"/>
<path d="M549.673 615.339L538.537 615.245L533.609 571.175L550.042 571.314L549.673 615.339Z" fill="#A0616A"/>
<path d="M514.005 633.093C513.995 634.417 514.509 635.69 515.435 636.634C516.36 637.578 517.621 638.116 518.941 638.129L541.08 638.314L544.956 630.437L546.379 638.354L554.733 638.43L552.623 610.191L549.717 609.997L537.863 609.178L534.038 608.921L533.971 616.911L516.187 629.006C515.521 629.46 514.974 630.068 514.594 630.78C514.214 631.492 514.012 632.286 514.005 633.093Z" fill="#001D38"/>
<path d="M426.445 615.39L415.828 612.018L424.03 568.442L439.699 573.416L426.445 615.39Z" fill="#A0616A"/>
<path d="M387.149 621.853C386.752 623.115 386.87 624.483 387.478 625.658C388.086 626.833 389.134 627.719 390.392 628.12L411.499 634.819L417.512 628.431L416.553 636.419L424.516 638.952L430.774 611.338L428.053 610.297L416.962 606.021L413.381 604.649L410.976 612.267L390.432 618.589C389.662 618.826 388.962 619.247 388.39 619.815C387.818 620.384 387.392 621.083 387.149 621.853Z" fill="#001D38"/>
<path d="M603.933 275.442L497.148 295.061C497.148 295.061 480.021 307.908 484.602 312.509C489.184 317.11 489.895 316.397 486.885 319.415C483.874 322.434 477.366 326.468 477.302 329.109C477.238 331.75 429.452 450.208 429.452 450.208C429.452 450.208 434.761 447.546 430.779 451.539C426.797 455.532 426.797 458.831 426.797 458.831L408.213 584.637L438.394 586.418L467.946 471.724L533.863 364.574C533.863 364.574 540.403 460.124 540.678 466.479C540.952 472.834 544.934 464.848 540.952 472.834C536.97 480.82 534.315 475.496 536.97 480.82C539.625 486.144 527.406 594.532 527.406 594.532H554.954L614.036 369.874C614.036 369.874 635.056 305.647 603.933 275.442Z" fill="#001D38"/>
<path d="M572.475 95.7435L529.701 91.287L518.618 105.714L505.708 112.609C500.244 115.526 495.735 119.96 492.718 125.38C489.701 130.8 488.306 136.977 488.698 143.171L503.785 231.174C503.785 231.174 491.041 259.949 499.803 267.111C508.565 274.273 493.029 292.01 511.75 283.083C530.47 274.155 611.304 284.414 611.304 284.414L594.048 235.167L606.938 186.776L608.357 146.201C608.622 138.619 606.378 131.161 601.975 124.992C597.572 118.822 591.256 114.286 584.014 112.092L582.211 111.546L572.475 95.7435Z" fill="#00EE87"/>
<path d="M631.364 62.8625C631.644 74.9518 627.138 86.6577 620.666 96.9396C618.742 90.9372 615.285 85.4742 611.679 80.2665C613.497 91.5323 611.56 103.085 606.17 113.136C605.98 113.272 605.783 113.399 605.581 113.515C600.304 116.697 593.615 117.986 587.908 115.688C599.7 102.942 601.201 81.8226 591.314 67.5255C588.515 63.4687 584.895 59.8807 583.161 55.2639C580.424 47.8976 583.055 39.787 584.715 32.1069C586.267 24.9589 586.539 16.4528 581.756 11.2143C582.267 10.4822 582.963 9.89951 583.772 9.52583C584.582 9.15216 585.476 9.00097 586.363 9.08776C589.311 9.50541 591.458 12.0754 592.825 14.7222C594.192 17.369 595.093 20.3026 596.998 22.5888C600.526 26.8679 606.535 27.8796 611.598 30.1348C623.86 35.6112 631.07 49.4104 631.364 62.8625Z" fill="#001D38"/>
<path d="M315.455 638.416C315.454 638.624 315.495 638.83 315.574 639.023C315.653 639.215 315.769 639.39 315.916 639.537C316.063 639.685 316.237 639.801 316.429 639.881C316.621 639.96 316.827 640.001 317.035 640H653.249C653.667 640 654.069 639.833 654.365 639.536C654.662 639.239 654.828 638.836 654.828 638.416C654.828 637.996 654.662 637.593 654.365 637.296C654.069 636.999 653.667 636.832 653.249 636.832H317.035C316.827 636.832 316.621 636.872 316.429 636.951C316.237 637.031 316.063 637.148 315.916 637.295C315.769 637.442 315.653 637.617 315.574 637.809C315.495 638.002 315.454 638.208 315.455 638.416Z" fill="#CCCCCC"/>
<path d="M634.011 343.057C640.609 343.057 645.958 337.694 645.958 331.079C645.958 324.463 640.609 319.1 634.011 319.1C627.413 319.1 622.065 324.463 622.065 331.079C622.065 337.694 627.413 343.057 634.011 343.057Z" fill="#00EE87"/>
<path d="M528.149 55.9503C528.85 53.4912 524.02 68.5232 526.351 68.7946C536.965 70.0156 551.537 76.3721 558.93 79.3375C559.262 79.2987 559.595 79.26 559.919 79.2115C560.712 79.1243 561.485 78.9983 562.249 78.853C579.463 75.5871 586.083 49.0721 586.083 48.8299C586.083 47.6379 583.23 14.8992 578.736 14.4147C577.555 14.2862 576.369 14.2215 575.181 14.2209H564.028C561.72 13.7222 559.381 13.3822 557.027 13.2033H557.007C534.554 11.488 516.85 25.2104 518.505 41.9081C518.515 41.9274 518.534 41.9468 518.544 41.9662C519.024 42.6834 519.445 43.3617 519.817 44.011C520.179 44.6216 520.483 45.203 520.747 45.7554C522.794 50.0194 517.533 55.385 521.021 56.3865C525.661 57.7185 508.819 101.498 527.183 101.498C518.25 104.045 526.216 62.734 528.149 55.9503Z" fill="#001D38"/>
<path d="M548.193 81.6384C562.777 81.6384 574.599 69.7838 574.599 55.1604C574.599 40.5371 562.777 28.6825 548.193 28.6825C533.609 28.6825 521.787 40.5371 521.787 55.1604C521.787 69.7838 533.609 81.6384 548.193 81.6384Z" fill="#A0616A"/>
<path d="M518.505 43.352C518.945 43.5845 519.376 43.7978 519.817 44.011C520.277 44.2339 520.737 44.4567 521.198 44.6602C530.04 48.682 537.237 49.1278 541.604 43.352C541.721 40.3128 542.402 37.3222 543.612 34.5331C543.398 37.6499 544.217 40.7502 545.942 43.352H554.735C563.793 49.3797 568.444 50.0097 562.158 69.7987C560.405 75.3129 553.436 107.4 556.177 112.158C556.971 112.071 565.409 76.9258 566.172 76.7805C583.387 73.5146 594.325 45.0769 592.924 43.4683C592.931 38.8935 591.882 34.3793 589.859 30.2788C587.3 25.0837 583.311 20.7321 578.364 17.7386C575.414 16.3048 572.34 15.1466 569.179 14.2789C569.1 14.2595 569.032 14.2401 568.953 14.2208C567.984 13.9591 566.995 13.7168 566.006 13.5133C563.963 13.0807 561.897 12.7669 559.817 12.5733C559.67 12.5636 559.524 12.5539 559.387 12.5539C558.556 12.5558 557.742 12.7801 557.027 13.2033C557.017 13.2033 557.017 13.2129 557.007 13.2129C556.496 13.5122 556.05 13.9109 555.695 14.3855C555.07 15.184 554.731 16.1709 554.735 17.1862H544.943C544.581 17.1862 544.219 17.1959 543.856 17.2152C537.321 17.4392 531.104 20.1004 526.423 24.6782C521.741 29.256 518.931 35.4209 518.544 41.9662C518.515 42.4314 518.505 42.8867 518.505 43.352Z" fill="#001D38"/>
<path d="M576.241 34.8877C585.849 34.8877 593.638 27.0778 593.638 17.4438C593.638 7.80987 585.849 0 576.241 0C566.633 0 558.844 7.80987 558.844 17.4438C558.844 27.0778 566.633 34.8877 576.241 34.8877Z" fill="#001D38"/>
<path d="M634.145 336.018C634.995 334.676 635.543 333.164 635.752 331.588C635.961 330.013 635.826 328.41 635.357 326.892C634.888 325.373 634.096 323.975 633.035 322.794C631.973 321.613 630.669 320.677 629.212 320.051L629.298 265.346L614.213 261.602L614.585 326.577C613.717 329.115 613.807 331.884 614.839 334.36C615.87 336.835 617.772 338.846 620.183 340.009C622.594 341.173 625.347 341.41 627.921 340.674C630.494 339.938 632.709 338.282 634.145 336.018Z" fill="#A0616A"/>
<path d="M559.445 135.064L582.919 119.068C584.014 118.322 585.253 117.813 586.556 117.575C587.858 117.337 589.196 117.375 590.483 117.686C591.771 117.998 592.979 118.575 594.03 119.382C595.082 120.189 595.953 121.208 596.589 122.373L636.946 196.32L637.1 304.543L611.904 302.959L601.561 213.611L559.445 135.064Z" fill="#00EE87"/>
<path d="M379.162 380.498H128.286C122.829 380.498 117.596 382.671 113.738 386.54C109.879 390.409 107.712 395.656 107.712 401.128C107.712 406.599 109.879 411.847 113.738 415.716C117.596 419.585 122.829 421.758 128.286 421.758H379.162C384.619 421.758 389.852 419.585 393.711 415.716C397.569 411.847 399.737 406.599 399.737 401.128C399.737 395.656 397.569 390.409 393.711 386.54C389.852 382.671 384.619 380.498 379.162 380.498Z" fill="white"/>
<path d="M379.162 423.089H128.286C122.477 423.089 116.907 420.775 112.799 416.657C108.692 412.538 106.384 406.952 106.384 401.128C106.384 395.303 108.692 389.717 112.799 385.599C116.907 381.48 122.477 379.167 128.286 379.167H379.162C384.971 379.167 390.542 381.48 394.649 385.599C398.757 389.717 401.064 395.303 401.064 401.128C401.064 406.952 398.757 412.538 394.649 416.657C390.542 420.775 384.971 423.089 379.162 423.089ZM128.286 381.829C123.181 381.829 118.286 383.862 114.676 387.481C111.067 391.101 109.039 396.009 109.039 401.128C109.039 406.246 111.067 411.155 114.676 414.774C118.286 418.394 123.181 420.427 128.286 420.427H379.162C384.267 420.427 389.163 418.394 392.772 414.774C396.382 411.155 398.41 406.246 398.41 401.128C398.41 396.009 396.382 391.101 392.772 387.481C389.163 383.862 384.267 381.829 379.162 381.829H128.286Z" fill="#00EE87"/>
<path d="M393.956 470.529H283.243C281.691 470.529 280.203 469.911 279.106 468.81C278.008 467.71 277.392 466.218 277.392 464.662C277.392 463.106 278.008 461.614 279.106 460.513C280.203 459.413 281.691 458.795 283.243 458.795H393.956C395.507 458.795 396.996 459.413 398.093 460.513C399.19 461.614 399.807 463.106 399.807 464.662C399.807 466.218 399.19 467.71 398.093 468.81C396.996 469.911 395.507 470.529 393.956 470.529Z" fill="#00EE87"/>
</svg>
