<?xml version="1.0" encoding="UTF-8"?>
<svg id="Camada_2" data-name="Camada 2" xmlns="http://www.w3.org/2000/svg" viewBox="0 0 103.74 213.11">
  <defs>
    <style>
      .cls-1 {
        fill: #00e67a;
      }
    </style>
  </defs>
  <g id="Camada_2-2" data-name="Camada 2">
    <path class="cls-1" d="M92.5,116.52c-6.86,10.64-14.33,17.18-14.33,17.18,5.11,30.75-16.41,78.56-16.41,78.56-9.71,3.94-15.93-7.17-15.93-7.17,53.15-82.4-2.29-160-3.47-161.64,25.96,54.5,18.67,90.16,18.67,90.16C3.78,119.28-3.24,76.83,1.02,43.59c1.05-8.25,2.8-15.93,4.64-22.47C9.25,8.42,13.21,0,13.21,0c52.74,19.15,76.96,40.87,86.02,61.16,9.71,21.75,1.98,41.86-6.73,55.36Z"/>
  </g>
</svg>