<svg width="694" height="372" viewBox="0 0 694 372" fill="none" xmlns="http://www.w3.org/2000/svg">
<path d="M61.7874 125.423C61.7874 105.696 71.3635 86.536 88.1864 78.3076C93.656 75.6394 99.8848 74.1246 106.786 74.1246H106.873C108.684 59.8367 111.669 46.5473 114.861 35.1171C111.117 34.79 107.149 34.6695 102.818 34.6695C85.7191 34.6695 71.122 39.2829 59.113 47.1326C32.2309 64.7084 18.2895 98.5344 18.2895 133.307C18.2895 203.834 89.9636 219.12 89.9636 275.841C89.9636 302.472 75.1422 329.601 45.4822 329.601C29.66 329.601 17.306 322.199 5.43509 312.335L0 356.232C13.3548 367.576 28.6765 372 45.9825 372C101.334 372 132.978 320.22 132.978 269.919C132.978 196.432 61.7874 176.205 61.7874 125.423Z" fill="#BFBFBF"/>
<path d="M301.535 330.083L337.131 38.6116H293.132L286.852 90.151C293.288 100.893 297.601 112.03 299.792 123.581C307.402 163.725 287.128 198.377 271.237 218.397L253.085 367.576H368.274L372.726 330.083H301.535Z" fill="#BFBFBF"/>
<path d="M443.883 330.083L479.495 38.6116H435.497L395.45 367.576H510.639L515.056 330.083H443.883Z" fill="#BFBFBF"/>
<path d="M689.583 76.1042L694 38.6116H577.862L537.815 367.576H653.987L658.439 330.083H586.265L599.585 218.139H663.857L668.809 180.646H604.554L617.408 76.1042H689.583Z" fill="#BFBFBF"/>
<path d="M273.411 200.58C261.574 218.896 248.685 230.155 248.685 230.155C257.502 283.088 220.371 365.39 220.371 365.39C203.617 372.172 192.885 353.047 192.885 353.047C284.591 211.202 188.934 77.6191 186.898 74.7959C231.69 168.614 219.112 230 219.112 230C120.331 205.332 108.219 132.257 115.569 75.0369C117.381 60.8352 120.4 47.6146 123.575 36.3565C129.769 14.4944 136.602 0 136.602 0C227.601 32.9653 269.39 70.3546 285.023 105.282C301.777 142.723 288.439 177.341 273.411 200.58Z" fill="#00E67A"/>
</svg>
